<?xml version="1.0" standalone="no"?>
<!DOCTYPE svg PUBLIC "-//W3C//DTD SVG 20010904//EN"
 "http://www.w3.org/TR/2001/REC-SVG-20010904/DTD/svg10.dtd">
<svg version="1.0" xmlns="http://www.w3.org/2000/svg"
 width="2615.000000pt" height="300.000000pt" viewBox="0 0 2615.000000 300.000000"
 preserveAspectRatio="xMidYMid meet">

<g transform="translate(0.000000,300.000000) scale(0.100000,-0.100000)"
fill="#000000" stroke="none">
<path d="M6635 2994 c-492 -53 -819 -186 -1085 -440 -194 -187 -311 -398 -376
-679 -25 -111 -31 -549 -9 -691 104 -662 654 -1104 1465 -1175 160 -14 440 -6
585 16 715 110 1175 502 1296 1105 26 129 36 434 19 595 -26 254 -113 489
-248 671 -230 306 -600 507 -1072 579 -101 16 -487 28 -575 19z m380 -425
c413 -51 686 -284 775 -661 55 -237 53 -616 -6 -848 -111 -438 -467 -670 -994
-647 -291 13 -499 94 -666 261 -120 120 -185 243 -236 440 -17 67 -21 123 -25
322 -6 256 2 353 38 490 66 253 232 453 463 559 179 82 416 113 651 84z"/>
<path d="M17555 2994 c-16 -2 -73 -9 -125 -15 -215 -24 -443 -90 -624 -181
-380 -191 -614 -487 -702 -888 -16 -73 -19 -130 -19 -415 0 -285 3 -342 19
-415 127 -581 568 -949 1266 -1057 143 -22 550 -25 710 -5 610 77 1026 334
1184 733 27 71 56 179 56 217 l0 22 -352 -2 -352 -3 -17 -70 c-46 -181 -156
-327 -302 -399 -152 -75 -394 -114 -637 -103 -474 23 -747 240 -842 672 -25
114 -37 549 -19 702 56 471 316 735 781 792 253 32 556 -9 724 -97 143 -75
249 -219 295 -402 l19 -75 351 -3 c406 -3 365 -17 331 118 -144 565 -714 886
-1560 878 -85 0 -168 -3 -185 -4z"/>
<path d="M24245 2994 c-492 -53 -819 -186 -1085 -440 -194 -187 -311 -398
-376 -679 -25 -111 -31 -549 -9 -691 104 -662 654 -1104 1465 -1175 160 -14
440 -6 585 16 715 110 1175 502 1296 1105 26 129 36 434 19 595 -26 254 -113
489 -248 671 -230 306 -600 507 -1072 579 -101 16 -487 28 -575 19z m380 -425
c413 -51 686 -284 775 -661 55 -237 53 -616 -6 -848 -111 -438 -467 -670 -994
-647 -291 13 -499 94 -666 261 -120 120 -185 243 -236 440 -17 67 -21 123 -25
322 -6 256 2 353 38 490 66 253 232 453 463 559 179 82 416 113 651 84z"/>
<path d="M10 1500 l0 -1460 355 0 355 0 0 1460 0 1460 -355 0 -355 0 0 -1460z"/>
<path d="M1962 1500 l733 -1460 345 0 345 0 733 1454 c402 800 732 1457 732
1460 0 3 -175 6 -388 6 l-388 0 -519 -1142 -519 -1142 -18 39 c-9 22 -240 535
-512 1140 l-495 1100 -391 3 -391 2 733 -1460z"/>
<path d="M9240 1500 l0 -1460 360 0 360 0 0 560 0 560 394 0 393 0 409 -560
409 -559 383 -1 c299 0 382 3 382 13 0 11 -124 176 -732 979 l-187 247 67 22
c192 63 379 176 494 297 82 88 125 161 160 272 19 64 23 95 22 210 0 150 -14
217 -66 327 -122 258 -429 439 -870 512 -215 36 -359 41 -1179 41 l-799 0 0
-1460z m1636 1039 c333 -37 520 -168 564 -397 19 -95 7 -183 -35 -269 -45 -92
-111 -151 -229 -208 -176 -84 -266 -94 -798 -95 l-418 0 0 490 0 490 410 0
c226 0 454 -5 506 -11z"/>
<path d="M12338 2908 c21 -29 330 -444 685 -922 l647 -868 0 -539 0 -539 360
0 360 0 0 540 0 540 680 916 c374 503 680 917 680 920 0 2 -176 3 -392 2
l-392 -3 -461 -677 c-253 -373 -464 -681 -470 -687 -6 -6 -173 232 -476 677
l-467 687 -396 3 -397 2 39 -52z"/>
<path d="M19950 1500 l0 -1460 1285 0 1285 0 0 205 0 205 -925 0 -925 0 0
1255 0 1255 -360 0 -360 0 0 -1460z"/>
</g>
</svg>
